<svg width="1076" height="212" viewBox="0 0 1076 212" fill="none" xmlns="http://www.w3.org/2000/svg">
<path d="M309.299 189.688C297.724 189.688 287.018 187.8 277.179 184.022C267.485 180.101 259.022 174.654 251.788 167.68C244.698 160.563 239.128 152.283 235.077 142.84C231.026 133.398 229 123.013 229 111.682C229 100.352 231.026 89.9651 235.077 80.5232C239.128 71.0813 244.77 62.8737 252.005 55.9016C259.239 48.783 267.702 43.3361 277.397 39.5587C287.235 35.6369 297.942 33.6755 309.516 33.6755C321.235 33.6755 332.014 35.7102 341.853 39.7774C351.836 43.6991 360.3 49.5822 367.245 57.4268L353.138 71.1534C347.351 65.0527 340.84 60.5493 333.606 57.6444C326.372 54.594 318.631 53.0688 310.384 53.0688C301.848 53.0688 293.89 54.5207 286.511 57.4268C279.277 60.3317 272.984 64.3989 267.63 69.6282C262.277 74.8576 258.081 81.1037 255.043 88.3677C252.149 95.4852 250.702 103.257 250.702 111.682C250.702 120.107 252.149 127.951 255.043 135.214C258.081 142.332 262.277 148.506 267.63 153.735C272.984 158.964 279.277 163.033 286.511 165.938C293.89 168.843 301.848 170.296 310.384 170.296C318.631 170.296 326.372 168.843 333.606 165.938C340.84 162.887 347.351 158.238 353.138 151.992L367.245 165.719C360.3 173.564 351.836 179.52 341.853 183.587C332.014 187.654 321.163 189.688 309.299 189.688Z" fill="#3498DB"/>
<path d="M462.965 187.946V163.542L461.879 158.965V117.348C461.879 108.486 459.275 101.66 454.067 96.8656C449.003 91.9271 441.334 89.4573 431.061 89.4573C424.261 89.4573 417.606 90.6194 411.095 92.9438C404.584 95.1228 399.087 98.0999 394.602 101.877L385.92 86.1893C391.852 81.3951 398.942 77.7642 407.189 75.2944C415.58 72.6792 424.334 71.3727 433.449 71.3727C449.219 71.3727 461.373 75.2211 469.909 82.9203C478.446 90.6194 482.714 102.386 482.714 118.219V187.946H462.965ZM425.203 189.252C416.666 189.252 409.143 187.8 402.632 184.894C396.265 181.989 391.347 177.994 387.874 172.91C384.401 167.681 382.665 161.798 382.665 155.261C382.665 149.015 384.112 143.35 387.006 138.265C390.044 133.181 394.891 129.114 401.546 126.064C408.347 123.013 417.462 121.488 428.892 121.488H465.352V136.522H429.76C419.343 136.522 412.325 138.265 408.708 141.752C405.091 145.238 403.283 149.451 403.283 154.389C403.283 160.055 405.525 164.631 410.01 168.117C414.496 171.458 420.716 173.129 428.674 173.129C436.488 173.129 443.287 171.385 449.075 167.899C455.007 164.413 459.275 159.329 461.879 152.647L466.003 167.027C463.254 173.855 458.407 179.302 451.462 183.369C444.518 187.292 435.764 189.252 425.203 189.252Z" fill="#3498DB"/>
<path d="M582.252 189.253C572.413 189.253 563.515 187.074 555.557 182.717C547.745 178.214 541.524 171.603 536.893 162.889C532.408 154.173 530.166 143.278 530.166 130.204C530.166 117.131 532.48 106.236 537.11 97.52C541.885 88.8041 548.178 82.2672 555.991 77.9092C563.949 73.5523 572.703 71.3733 582.252 71.3733C593.537 71.3733 603.52 73.842 612.201 78.7817C620.882 83.7202 627.754 90.6201 632.818 99.4815C637.882 108.197 640.414 118.437 640.414 130.204C640.414 141.97 637.882 152.284 632.818 161.145C627.754 170.006 620.882 176.906 612.201 181.844C603.52 186.784 593.537 189.253 582.252 189.253ZM521.268 187.946V26.2684H542.102V103.186L539.931 129.986L541.234 156.787V187.946H521.268ZM580.515 170.951C587.894 170.951 594.477 169.28 600.264 165.939C606.196 162.598 610.826 157.877 614.154 151.776C617.627 145.529 619.363 138.339 619.363 130.204C619.363 121.924 617.627 114.807 614.154 108.85C610.826 102.749 606.196 98.0284 600.264 94.6872C594.477 91.3461 587.894 89.6755 580.515 89.6755C573.282 89.6755 566.698 91.3461 560.766 94.6872C554.979 98.0284 550.348 102.749 546.877 108.85C543.549 114.807 541.885 121.924 541.885 130.204C541.885 138.339 543.549 145.529 546.877 151.776C550.348 157.877 554.979 162.598 560.766 165.939C566.698 169.28 573.282 170.951 580.515 170.951Z" fill="#3498DB"/>
<path d="M669.205 187.946V72.4618H690.04V187.946H669.205ZM679.622 50.2368C675.572 50.2368 672.171 48.9292 669.423 46.315C666.818 43.6998 665.516 40.504 665.516 36.7277C665.516 32.8049 666.818 29.537 669.423 26.9217C672.171 24.3076 675.572 23 679.622 23C683.674 23 687.002 24.3076 689.606 26.9217C692.355 29.3915 693.73 32.5152 693.73 36.2915C693.73 40.2132 692.427 43.5544 689.822 46.315C687.219 48.9292 683.818 50.2368 679.622 50.2368Z" fill="#3498DB"/>
<path d="M729.814 187.946V72.4616H749.78V103.62L746.524 95.3404C750.286 87.7867 756.073 81.9035 763.886 77.691C771.699 73.4784 780.814 71.3727 791.231 71.3727C800.636 71.3727 808.883 73.1876 815.972 76.8196C823.206 80.4516 828.849 85.9707 832.901 93.379C836.951 100.787 838.977 110.157 838.977 121.488V187.946H818.142V123.885C818.142 112.699 815.394 104.274 809.895 98.6094C804.542 92.9439 796.947 90.1111 787.108 90.1111C779.729 90.1111 773.291 91.5641 767.793 94.4691C762.295 97.374 758.027 101.66 754.989 107.324C752.095 112.99 750.648 120.035 750.648 128.46V187.946H729.814Z" fill="#3498DB"/>
<path d="M928.756 189.252C916.458 189.252 905.607 186.71 896.202 181.626C886.943 176.542 879.708 169.569 874.5 160.709C869.436 151.848 866.904 141.68 866.904 130.203C866.904 118.728 869.364 108.56 874.283 99.6984C879.347 90.837 886.219 83.9371 894.901 78.9986C903.726 73.9146 913.637 71.3727 924.633 71.3727C935.773 71.3727 945.611 73.8414 954.148 78.781C962.685 83.7195 969.34 90.6916 974.114 99.6984C979.034 108.56 981.493 118.945 981.493 130.857C981.493 131.728 981.421 132.745 981.276 133.907C981.276 135.069 981.204 136.159 981.059 137.176H883.181V122.141H970.208L961.743 127.371C961.889 119.962 960.37 113.353 957.186 107.543C954.003 101.732 949.591 97.2286 943.948 94.0328C938.45 90.6916 932.011 89.0221 924.633 89.0221C917.398 89.0221 910.96 90.6916 905.318 94.0328C899.675 97.2286 895.262 101.805 892.079 107.761C888.896 113.57 887.304 120.253 887.304 127.807V131.293C887.304 138.992 889.041 145.892 892.513 151.993C896.13 157.948 901.122 162.597 907.488 165.938C913.853 169.279 921.16 170.95 929.407 170.95C936.208 170.95 942.356 169.788 947.854 167.463C953.497 165.139 958.416 161.652 962.611 157.005L974.114 170.514C968.905 176.614 962.395 181.263 954.582 184.459C946.914 187.655 938.306 189.252 928.756 189.252Z" fill="#3498DB"/>
<path d="M1049.92 189.252C1038.35 189.252 1029.38 186.13 1023.01 179.884C1016.64 173.637 1013.46 164.703 1013.46 153.082V47.1863H1034.3V152.211C1034.3 158.457 1035.81 163.251 1038.85 166.592C1042.04 169.933 1046.52 171.603 1052.31 171.603C1058.82 171.603 1064.25 169.788 1068.58 166.156L1075.1 181.19C1071.91 183.951 1068.08 185.984 1063.59 187.292C1059.25 188.6 1054.7 189.252 1049.92 189.252ZM993.929 89.6749V72.4617H1067.28V89.6749H993.929Z" fill="#3498DB"/>
<path d="M166.706 120.853C196.352 45.9672 159.294 41.5186 150.4 41.5186H149.659V20.7598C174.117 20.7583 223.033 42.2616 187.458 125.303C180.047 249.864 132.612 225.397 100 141.614C67.3888 225.397 19.954 250.606 12.5423 126.044C-23.0339 43.003 25.8833 21.4998 50.3419 21.5013V41.5201H49.0449C40.1509 41.5201 3.09229 45.9687 32.7391 120.854C34.7151 141.614 40.2991 184.618 46.8214 190.549C57.9389 181.652 75.727 143.69 81.6563 131.234C92.5886 109.732 107.412 109.731 117.788 131.233C123.718 143.689 141.506 181.651 152.623 190.548C159.146 184.616 164.73 141.613 166.706 120.853Z" fill="#3498DB"/>
<path d="M89.6291 21.5017V0H110.382V21.5017H132.617V42.262H110.518V63.7637H89.6291V42.262H68.1352V21.5017H89.6291Z" fill="#3498DB"/>
</svg>
