<svg width="190" height="208" viewBox="0 0 190 208" fill="none" xmlns="http://www.w3.org/2000/svg">
<path d="M9.11342 42.3564C2.9444 97.893 44.7721 198.58 68.7592 198.58C78.5939 196.412 87.3982 188.346 94.7136 176.748C92.8506 173.715 91.087 170.453 89.4307 167C88.6507 165.374 87.8944 163.706 87.1628 162C86.1894 159.73 85.2595 157.394 84.3752 155C68.2714 111.412 67.2516 48.9027 92.9312 27.4107C93.8553 26.7896 94.7826 26.183 95.7125 25.5909C91.3415 22.7292 86.9047 20.1892 82.4665 18C78.1257 15.8588 73.7835 14.0532 69.5 12.6104C40.2855 2.76996 13.8016 9.80495 9.11342 42.3564Z" fill="#3498DB"/>
<path d="M95.7125 25.5909C94.7826 26.183 93.8553 26.7896 92.9312 27.4107C67.2516 48.9027 68.2714 111.412 84.3752 155L87.1628 162C87.8944 163.706 88.6507 165.374 89.4307 167C91.087 170.453 92.8506 173.715 94.7136 176.748C120.343 136.115 127.699 52.1256 97.0688 26.4906C96.6175 26.1872 96.1653 25.8873 95.7125 25.5909Z" fill="#3498DB"/>
<path d="M94.7136 176.748C87.3982 188.346 78.5939 196.412 68.7592 198.58C44.7721 198.58 2.9444 97.893 9.11342 42.3564C13.8016 9.80495 40.2855 2.76996 69.5 12.6104C73.7835 14.0532 78.1257 15.8588 82.4665 18C86.9047 20.1892 91.3415 22.7292 95.7125 25.5909M94.7136 176.748C120.343 136.115 127.699 52.1256 97.0688 26.4906C96.6175 26.1872 96.1653 25.8873 95.7125 25.5909M94.7136 176.748C102.141 188.839 111.148 197.275 121.241 199.5C145.228 199.5 187.056 98.8131 180.887 43.2765C174.884 1.60188 133.157 1.75102 95.7125 25.5909M94.7136 176.748C92.8506 173.715 91.087 170.453 89.4307 167C88.6507 165.374 87.8944 163.706 87.1628 162M95.7125 25.5909C94.7826 26.183 93.8553 26.7896 92.9312 27.4107C67.2516 48.9027 68.2714 111.412 84.3752 155M87.1628 162C86.1894 159.73 85.2595 157.394 84.3752 155M87.1628 162L84.3752 155" stroke="#3498DB" stroke-width="17"/>
</svg>
