<svg width="1033" height="1094" viewBox="0 0 1033 1094" fill="none" xmlns="http://www.w3.org/2000/svg">
<path d="M860.759 623.611C1013.71 237.364 822.519 214.417 776.63 214.417H772.811V107.344C898.994 107.339 1151.37 218.247 967.825 646.564C929.585 1289.04 684.857 1162.84 516.609 730.695C348.361 1162.84 103.63 1292.86 65.392 650.389C-118.154 222.071 134.222 111.163 260.407 111.168V214.422H253.718C207.829 214.422 16.6378 237.369 169.592 623.617C179.789 730.695 208.594 952.505 242.244 983.097C299.602 937.207 391.375 741.404 421.966 677.156C478.369 566.253 554.849 566.248 608.382 677.15C638.973 741.398 730.746 937.202 788.104 983.092C821.754 952.5 850.559 730.69 860.759 623.611Z" fill="#3498DB"/>
<path d="M463.076 111.168V0.265625H570.142V111.168H684.857V218.246H570.85V329.149H463.076V218.246H352.18V111.168H463.076Z" fill="#3498DB"/>
</svg>
